<svg width="16" height="16" xmlns="http://www.w3.org/2000/svg">
  <path fill-rule="evenodd" fill="#cccccc"
    d="M2.992 7.037h4.023V3.014H2.992v4.023zM14.988 0a1 1 0 011 1v13.988a1 1 0 01-1 1H1a1 1 0 01-1-1V1a1 1 0 011-1zm0 1H1v13.988h13.988V1zM7.515 9.034a.5.5 0 01.5.5v3.98a.5.5 0 01-.5.5H2.49a.5.5 0 01-.5-.5v-3.98a.5.5 0 01.5-.5zm6.007 1.986a.5.5 0 01.5.5v1.986a.5.5 0 01-.5.5H9.485a.5.5 0 01-.5-.5V11.52a.5.5 0 01.5-.5zm-6.507-.986H2.992v2.98h4.023v-2.98zm6.007 1.987H9.985v.985h3.037v-.985zm.5-10.008a.5.5 0 01.5.5v7.021a.5.5 0 01-.5.5H9.485a.5.5 0 01-.5-.5V2.513a.5.5 0 01.5-.5zm-.5 1H9.985v6.021h3.037V3.013zm-5.507-1a.5.5 0 01.5.5v5.024a.5.5 0 01-.5.5H2.49a.5.5 0 01-.5-.5V2.513a.5.5 0 01.5-.5z" />
</svg>